<svg width="24.000000" height="24.000000" viewBox="0 0 24 24" fill="none" xmlns="http://www.w3.org/2000/svg" xmlns:xlink="http://www.w3.org/1999/xlink">
	<desc>
			Created with Pixso.
	</desc>
	<defs>
		<clipPath id="clip3_582">
			<rect id="heroicons-solid/moon" rx="-0.500000" width="23.000000" height="23.000000" transform="translate(0.500000 0.500000)" fill="white" fill-opacity="0"/>
		</clipPath>
	</defs>
	<g clip-path="url(#clip3_582)">
		<path id="icon" d="M9.52 1.71C9.74 1.93 9.8 2.25 9.69 2.53C9.24 3.6 9 4.77 9 6C9 10.97 13.02 15 18 15C19.22 15 20.39 14.75 21.46 14.3C21.74 14.19 22.06 14.25 22.28 14.47C22.49 14.68 22.56 15.01 22.44 15.29C20.86 19.08 17.11 21.75 12.75 21.75C6.95 21.75 2.25 17.04 2.25 11.25C2.25 6.88 4.91 3.13 8.7 1.55C8.98 1.43 9.31 1.5 9.52 1.71Z" fill="#EFFDF5" fill-opacity="1.000000" fill-rule="evenodd"/>
	</g>
</svg>
