<svg width="24.000000" height="24.000000" viewBox="0 0 24 24" fill="none" xmlns="http://www.w3.org/2000/svg" xmlns:xlink="http://www.w3.org/1999/xlink">
	<desc>
			Created with Pixso.
	</desc>
	<defs>
		<clipPath id="clip3_619">
			<rect id="heroicons-solid/sun" rx="-0.500000" width="23.000000" height="23.000000" transform="translate(0.500000 0.500000)" fill="white" fill-opacity="0"/>
		</clipPath>
	</defs>
	<g clip-path="url(#clip3_619)">
		<path id="icon" d="M12 2.25C12.41 2.25 12.75 2.58 12.75 3L12.75 5.25C12.75 5.66 12.41 6 12 6C11.58 6 11.25 5.66 11.25 5.25L11.25 3C11.25 2.58 11.58 2.25 12 2.25ZM7.75 7.75C7.46 8.05 6.98 8.05 6.69 7.75L5.1 6.16C4.95 6.01 4.88 5.82 4.88 5.63C4.88 5.44 4.95 5.25 5.1 5.1C5.39 4.81 5.87 4.81 6.16 5.1L7.75 6.69C7.9 6.84 7.97 7.03 7.97 7.22C7.97 7.41 7.9 7.61 7.75 7.75ZM19.11 5.63C19.11 5.82 19.04 6.01 18.89 6.16L17.3 7.75C17.01 8.05 16.53 8.05 16.24 7.75C16.09 7.61 16.02 7.41 16.02 7.22C16.02 7.03 16.09 6.84 16.24 6.69L17.83 5.1C18.12 4.81 18.6 4.81 18.89 5.1C19.04 5.25 19.11 5.44 19.11 5.63ZM7.5 12C7.5 9.51 9.51 7.5 12 7.5C14.48 7.5 16.5 9.51 16.5 12C16.5 14.48 14.48 16.5 12 16.5C9.51 16.5 7.5 14.48 7.5 12ZM6 12C6 12.41 5.66 12.75 5.25 12.75L3 12.75C2.58 12.75 2.25 12.41 2.25 12C2.25 11.58 2.58 11.25 3 11.25L5.25 11.25C5.66 11.25 6 11.58 6 12ZM21.75 12C21.75 12.41 21.41 12.75 21 12.75L18.75 12.75C18.33 12.75 18 12.41 18 12C18 11.58 18.33 11.25 18.75 11.25L21 11.25C21.41 11.25 21.75 11.58 21.75 12ZM18.89 18.89C18.6 19.18 18.12 19.18 17.83 18.89L16.24 17.3C16.09 17.15 16.02 16.96 16.02 16.77C16.02 16.58 16.09 16.38 16.24 16.24C16.53 15.94 17.01 15.94 17.3 16.24L18.89 17.83C19.04 17.98 19.11 18.17 19.11 18.36C19.11 18.55 19.04 18.74 18.89 18.89ZM7.97 16.77C7.97 16.96 7.9 17.15 7.75 17.3L6.16 18.89C5.87 19.18 5.39 19.18 5.1 18.89C4.95 18.74 4.88 18.55 4.88 18.36C4.88 18.17 4.95 17.98 5.1 17.83L6.69 16.24C6.98 15.94 7.46 15.94 7.75 16.24C7.9 16.38 7.97 16.58 7.97 16.77ZM12 18C12.41 18 12.75 18.33 12.75 18.75L12.75 21C12.75 21.41 12.41 21.75 12 21.75C11.58 21.75 11.25 21.41 11.25 21L11.25 18.75C11.25 18.33 11.58 18 12 18Z" fill="#0F172A" fill-opacity="1.000000" fill-rule="evenodd"/>
	</g>
</svg>
